<?xml version="1.0" encoding="UTF-8" standalone="no"?>
<!DOCTYPE svg PUBLIC "-//W3C//DTD SVG 1.1//EN" "http://www.w3.org/Graphics/SVG/1.1/DTD/svg11.dtd">
<svg xmlns="http://www.w3.org/2000/svg" version="1.1" viewBox="0.00 0.00 512.00 512.00">
<path fill="#000000" d="
  M 407.34 218.69
  Q 428.17 218.84 449.00 218.79
  Q 461.69 218.76 467.10 229.46
  C 470.19 235.57 469.08 240.96 466.45 247.69
  Q 436.13 325.30 405.87 402.94
  C 404.42 406.65 400.19 407.47 396.20 407.47
  Q 225.35 407.49 54.51 407.47
  C 47.60 407.47 43.00 405.80 43.00 398.26
  Q 43.00 257.02 43.00 115.79
  C 43.00 108.16 45.33 104.75 53.04 104.75
  Q 104.65 104.74 156.25 104.74
  C 159.87 104.74 161.78 106.21 164.12 109.13
  Q 181.04 130.34 197.91 151.56
  A 1.04 1.03 -18.7 0 0 198.73 151.96
  Q 297.10 151.96 395.70 151.96
  C 402.05 151.96 406.81 153.77 406.78 160.75
  Q 406.63 189.44 406.79 218.14
  Q 406.79 218.68 407.34 218.69
  Z
  M 59.62 354.56
  Q 83.00 294.08 105.94 234.77
  Q 108.79 227.41 111.44 224.57
  Q 116.88 218.74 125.50 218.74
  Q 257.80 218.75 390.06 218.74
  A 0.28 0.28 0.0 0 0 390.34 218.46
  L 390.34 168.75
  A 0.44 0.44 0.0 0 0 389.90 168.31
  Q 292.25 168.31 194.50 168.31
  Q 190.29 168.31 187.90 165.31
  Q 170.50 143.49 153.03 121.52
  A 1.01 1.00 -18.9 0 0 152.24 121.14
  L 59.75 121.14
  A 0.35 0.35 0.0 0 0 59.40 121.49
  L 59.39 354.52
  Q 59.39 355.16 59.62 354.56
  Z
  M 122.73 236.75
  L 63.30 390.48
  A 0.20 0.20 0.0 0 0 63.49 390.75
  L 392.49 390.75
  Q 393.01 390.75 393.20 390.27
  L 452.04 239.54
  Q 453.76 235.14 449.04 235.14
  L 125.04 235.14
  A 2.54 2.46 -79.0 0 0 122.73 236.75
  Z"
/>
</svg>
