<?xml version="1.0" encoding="UTF-8" standalone="no"?>
<!DOCTYPE svg PUBLIC "-//W3C//DTD SVG 1.1//EN" "http://www.w3.org/Graphics/SVG/1.1/DTD/svg11.dtd">
<svg xmlns="http://www.w3.org/2000/svg" version="1.1" viewBox="0.00 0.00 512.00 512.00">
<path fill="#FEF27A" d="
  M 240.46 141.92
  C 210.34 146.14 184.06 161.55 165.31 185.29
  Q 164.87 185.85 164.26 185.49
  L 42.50 115.18
  A 0.39 0.38 -58.8 0 1 42.37 114.63
  C 87.71 47.24 159.53 5.16 240.72 0.26
  Q 241.00 0.24 241.00 0.52
  L 241.00 141.30
  A 0.63 0.62 86.3 0 1 240.46 141.92
  Z"
/>
<path fill="#FFFFFF" d="
  M 512.00 250.83
  L 512.00 261.05
  Q 510.65 316.64 487.93 364.47
  C 458.76 425.86 406.90 473.38 342.99 496.66
  Q 294.49 514.34 241.01 511.24
  Q 188.44 508.20 141.40 484.79
  A 0.23 0.23 0.0 0 1 141.30 484.47
  L 211.64 362.58
  Q 212.01 361.93 212.70 362.21
  Q 239.88 373.12 268.54 369.98
  C 306.38 365.83 339.99 342.87 357.43 309.68
  C 373.06 279.92 375.09 246.55 363.51 215.15
  C 349.07 176.01 312.68 147.39 271.58 141.96
  A 0.67 0.67 0.0 0 1 271.00 141.30
  L 271.00 0.53
  A 0.27 0.27 0.0 0 1 271.29 0.26
  Q 336.55 4.33 391.24 38.38
  C 420.83 56.80 447.20 81.81 467.17 111.02
  Q 509.98 173.64 512.00 250.83
  Z"
/>
<path fill="#FFFFFF" d="
  M 0.00 260.87
  L 0.00 251.41
  Q 1.25 193.28 26.85 141.37
  A 0.46 0.46 0.0 0 1 27.49 141.18
  L 149.42 211.56
  A 0.49 0.49 0.0 0 1 149.63 212.16
  Q 140.47 235.19 141.15 258.63
  Q 141.46 269.42 143.37 278.48
  Q 152.07 319.78 185.55 346.49
  A 0.77 0.76 34.9 0 1 185.73 347.48
  L 115.37 469.33
  A 0.32 0.31 -58.2 0 1 114.92 469.44
  C 76.94 444.04 45.75 409.13 25.80 368.01
  Q 1.36 317.60 0.00 260.87
  Z"
/>
</svg>
