<?xml version="1.0" encoding="UTF-8" standalone="no"?>
<!DOCTYPE svg PUBLIC "-//W3C//DTD SVG 1.1//EN" "http://www.w3.org/Graphics/SVG/1.1/DTD/svg11.dtd">
<svg xmlns="http://www.w3.org/2000/svg" version="1.1" viewBox="0.00 0.00 512.00 512.00">
<path fill="#000000" d="
  M 512.00 255.13
  L 512.00 256.85
  Q 511.24 262.74 508.41 266.41
  Q 467.84 319.04 414.72 358.94
  C 382.54 383.10 345.96 402.95 306.75 412.77
  Q 262.57 423.83 217.79 415.32
  C 187.85 409.64 162.09 399.07 136.99 385.03
  Q 117.56 374.17 96.04 357.92
  Q 43.66 318.39 3.59 266.41
  Q 0.77 262.75 0.00 256.87
  L 0.00 255.01
  Q 0.82 249.19 3.59 245.59
  Q 43.76 193.46 96.32 153.86
  Q 117.46 137.94 136.29 127.35
  C 157.90 115.21 179.85 105.62 205.27 99.27
  C 255.79 86.65 307.64 93.74 354.24 116.28
  C 415.08 145.71 467.33 192.27 508.53 245.75
  Q 511.22 249.24 512.00 255.13
  Z
  M 160.03 358.95
  C 178.85 369.10 198.34 376.47 218.01 381.02
  C 288.34 397.30 355.56 364.51 408.85 320.58
  Q 444.06 291.55 473.22 256.36
  Q 473.54 255.97 473.22 255.58
  C 449.42 227.23 422.85 201.23 393.04 179.22
  C 362.92 156.97 330.10 139.35 293.99 130.98
  C 193.13 107.60 98.05 184.73 38.75 255.61
  A 0.63 0.63 0.0 0 0 38.75 256.43
  C 73.02 297.04 113.03 333.57 160.03 358.95
  Z"
/>
<path fill="#000000" d="
  M 357.18 256.00
  A 101.18 101.18 0.0 0 1 256.00 357.18
  A 101.18 101.18 0.0 0 1 154.82 256.00
  A 101.18 101.18 0.0 0 1 256.00 154.82
  A 101.18 101.18 0.0 0 1 357.18 256.00
  Z
  M 323.44 256.00
  A 67.45 67.45 0.0 0 0 255.99 188.55
  A 67.45 67.45 0.0 0 0 188.54 256.00
  A 67.45 67.45 0.0 0 0 255.99 323.45
  A 67.45 67.45 0.0 0 0 323.44 256.00
  Z"
/>
</svg>
