<?xml version="1.0" encoding="UTF-8" standalone="no"?>
<!DOCTYPE svg PUBLIC "-//W3C//DTD SVG 1.1//EN" "http://www.w3.org/Graphics/SVG/1.1/DTD/svg11.dtd">
<svg xmlns="http://www.w3.org/2000/svg" version="1.1" viewBox="0.00 0.00 512.00 512.00">
<path fill="#000000" d="
  M 251.34 0.00
  L 260.84 0.00
  C 336.41 1.82 407.12 36.21 454.25 94.23
  Q 509.47 162.22 512.00 251.31
  L 512.00 260.84
  C 510.32 331.92 479.66 399.22 427.31 446.06
  Q 356.87 509.07 260.69 512.00
  L 251.17 512.00
  C 180.15 510.33 112.89 479.71 66.07 427.44
  Q 2.94 356.98 0.00 260.70
  L 0.00 251.13
  Q 3.01 154.76 66.31 84.29
  C 113.15 32.14 180.40 1.62 251.34 0.00
  Z
  M 472.24 256.00
  A 216.24 216.24 0.0 0 0 256.00 39.76
  A 216.24 216.24 0.0 0 0 39.76 256.00
  A 216.24 216.24 0.0 0 0 256.00 472.24
  A 216.24 216.24 0.0 0 0 472.24 256.00
  Z"
/>
<path fill="#000000" d="
  M 276.24 247.93
  Q 311.69 274.54 347.16 301.40
  Q 353.80 306.43 354.92 314.25
  C 357.41 331.60 337.55 343.41 323.40 332.84
  Q 283.99 303.38 244.66 273.83
  Q 236.45 267.67 236.41 257.25
  Q 236.16 198.25 236.13 139.25
  C 236.11 112.33 275.87 112.29 275.85 139.25
  Q 275.83 193.23 275.82 247.08
  A 1.07 1.07 0.0 0 0 276.24 247.93
  Z"
/>
</svg>
