<?xml version="1.0" encoding="UTF-8" standalone="no"?>
<!DOCTYPE svg PUBLIC "-//W3C//DTD SVG 1.1//EN" "http://www.w3.org/Graphics/SVG/1.1/DTD/svg11.dtd">
<svg xmlns="http://www.w3.org/2000/svg" version="1.1" viewBox="0.00 0.00 512.00 512.00">
<path fill="#000000" d="
  M 186.69 283.50
  A 0.38 0.38 0.0 0 0 187.23 283.84
  Q 196.27 279.38 206.25 278.12
  Q 249.52 272.69 292.80 267.32
  Q 305.74 265.71 310.35 263.55
  Q 320.35 258.86 323.97 247.79
  C 325.92 241.84 325.38 234.23 325.30 227.58
  Q 325.29 227.05 324.78 226.89
  C 292.08 216.80 274.18 182.06 286.61 149.66
  C 297.63 120.92 329.07 105.65 358.51 114.53
  C 395.42 125.66 411.55 169.69 390.71 202.23
  Q 380.12 218.76 360.70 225.85
  Q 359.16 226.41 357.68 227.12
  Q 357.23 227.34 357.24 227.84
  C 357.54 239.63 357.61 248.87 354.07 258.95
  C 347.35 278.09 331.60 291.99 312.13 296.69
  Q 308.44 297.58 292.36 299.61
  Q 254.13 304.42 215.89 309.14
  Q 206.20 310.33 201.92 312.32
  Q 191.71 317.05 188.05 328.05
  C 186.08 333.99 186.63 341.62 186.70 348.29
  Q 186.70 348.80 187.18 348.96
  Q 210.78 356.61 222.05 377.19
  C 241.87 413.35 219.23 457.51 178.76 463.42
  C 154.35 466.98 129.59 454.03 118.45 432.02
  C 101.53 398.54 119.10 359.96 154.35 348.96
  A 0.49 0.49 0.0 0 0 154.69 348.49
  L 154.69 163.71
  Q 154.69 163.10 154.10 162.91
  C 106.91 148.26 96.56 86.24 137.69 58.18
  C 179.63 29.58 236.32 64.93 228.68 115.21
  C 225.15 138.37 209.46 155.73 187.04 163.10
  A 0.52 0.52 0.0 0 0 186.69 163.59
  L 186.69 283.50
  Z
  M 197.31 106.66
  A 26.65 26.65 0.0 0 0 170.66 80.01
  A 26.65 26.65 0.0 0 0 144.01 106.66
  A 26.65 26.65 0.0 0 0 170.66 133.31
  A 26.65 26.65 0.0 0 0 197.31 106.66
  Z
  M 367.97 170.66
  A 26.64 26.64 0.0 0 0 341.33 144.02
  A 26.64 26.64 0.0 0 0 314.69 170.66
  A 26.64 26.64 0.0 0 0 341.33 197.30
  A 26.64 26.64 0.0 0 0 367.97 170.66
  Z
  M 197.31 405.33
  A 26.65 26.65 0.0 0 0 170.66 378.68
  A 26.65 26.65 0.0 0 0 144.01 405.33
  A 26.65 26.65 0.0 0 0 170.66 431.98
  A 26.65 26.65 0.0 0 0 197.31 405.33
  Z"
/>
</svg>
